# xmcd
#
# Track frame offsets: 
#        150
#        11343
#        31990
#        48482
#        61171
#        74942
#        89140
#        105929
#        124052
#        138971
#        157456
#        175383
#        189243
#        205611
#        220920
#        240156
#        260488
#        276464
#        289154
#        311206
#        325441
#
# Disc length: 4580 seconds
#
# Revision: 0
# Processed by: cddbd v1.5.2PL0 Copyright (c) Steve Scherf et al.
# Submitted via: ExactAudioCopy v1.0b3
#
DISCID=4411e215
DTITLE=Various Artist - Double Cream - Twenty Years of Nashville Numb
DTITLE=er 1 Hits 5
DYEAR=2012
DGENRE=Country
TTITLE0=Alan Jackson - Chattahoochee
TTITLE1=Carrie Underwood - Wasted
TTITLE2=Chris Young - Tomorrow
TTITLE3=Clint Black - Summer's Comin'
TTITLE4=Tracy Byrd - Ten Rounds with Jose Cuervo (Recall Mix)
TTITLE5=Kenny Chesney - How Forever Feels
TTITLE6=The Band Perry - If I Die Young
TTITLE7=Lonestar - Amazed
TTITLE8=Eli Young Band - Crazy Girl (Single Version)
TTITLE9=Diamond Rio - How Your Love Makes Me Feel
TTITLE10=Wynonna - No One Else On Earth
TTITLE11=Ricochet - Daddy's Money
TTITLE12=Joe Diffie - Pickup Man
TTITLE13=Chad Brock - Yes!
TTITLE14=Jessica Andrews - Who I Am
TTITLE15=Billy Currington - Must Be Doin' Somethin' Right
TTITLE16=Josh Turner - Your Man
TTITLE17=Jake Owen - Barefoot Blue Jean Night
TTITLE18=Lee Ann Womack feat. Sons Of The Desert - I Hope You Dance
TTITLE19=Clay Walker - Rumor Has It
TTITLE20=Chris Cagle - I Breathe In, I Breathe Out
EXTD=
EXTT0=
EXTT1=
EXTT2=
EXTT3=
EXTT4=
EXTT5=
EXTT6=
EXTT7=
EXTT8=
EXTT9=
EXTT10=
EXTT11=
EXTT12=
EXTT13=
EXTT14=
EXTT15=
EXTT16=
EXTT17=
EXTT18=
EXTT19=
EXTT20=
PLAYORDER=
